#N canvas 13 25 1427 814 12;
#X obj 472 200 soundfiler;
#X obj -267 236 phasor~ 440;
#X obj -267 270 *~ 4096;
#X floatatom -81 20 5 0 0 0 - - - 0;
#X msg -81 -32 60;
#X obj -83 -132 loadbang;
#X obj -267 202 mtof;
#X obj 127 500 *~;
#X obj 549 316 vline~;
#X obj 528 -119 tgl 15 0 empty empty empty 17 7 0 10 #fcfcfc #000000
#000000 0 1;
#X obj 528 -55 random 4;
#X obj 655 -53 s metro;
#X obj 852 278 r metro;
#X obj 528 -89 metro 1100;
#X obj -189 -17 inlet;
#X obj -397 118 inlet;
#X obj -328 204 bng 15 250 50 0 empty empty empty 17 7 0 10 #fcfcfc
#000000 #000000;
#N canvas 0 22 450 278 (subpatch) 0;
#X array chordyWave1 4096 float 2;
#X coords 0 1 4096 -1 200 140 1;
#X restore 785 40 graph;
#X msg 447 128 read -resize waves/p5saw.wav chordyWave1;
#X obj 567 6 s trigChordy;
#X obj 924 273 r trigChordy;
#X obj 463 -32 bng 15 250 50 0 empty empty empty 17 7 0 10 #fcfcfc
#000000 #000000;
#X obj -267 304 tabread4~ chordyWave1;
#X obj -71 265 phasor~ 440;
#X obj -71 299 *~ 4096;
#X obj -71 231 mtof;
#X obj -71 333 tabread4~ chordyWave1;
#X obj 110 261 phasor~ 440;
#X obj 110 295 *~ 4096;
#X obj 110 227 mtof;
#X obj 110 329 tabread4~ chordyWave1;
#X obj 85 -108 inlet;
#X obj 90 -13 s chordyMode;
#X obj 275 254 phasor~ 440;
#X obj 275 288 *~ 4096;
#X obj 275 220 mtof;
#X obj 275 322 tabread4~ chordyWave1;
#N canvas 858 -614 450 300 note2 0;
#X msg 120 115 3;
#X msg 182 114 4;
#X obj 168 19 r chordyMode;
#X obj 178 173 t b f;
#X obj 154 251 outlet;
#X obj 242 244 outlet;
#X floatatom 319 207 5 0 0 0 - - - 0;
#X msg 244 113 2;
#X obj 169 54 select 0 1 2 3;
#X msg 290 114 4;
#X connect 0 0 3 0;
#X connect 1 0 3 0;
#X connect 2 0 8 0;
#X connect 3 0 4 0;
#X connect 3 1 5 0;
#X connect 3 1 6 0;
#X connect 7 0 3 0;
#X connect 8 0 0 0;
#X connect 8 1 1 0;
#X connect 8 2 7 0;
#X connect 8 3 9 0;
#X connect 9 0 3 0;
#X restore -35 132 pd note2;
#X obj -72 194 + 3;
#N canvas 798 353 450 300 note4 0;
#X obj 168 19 r chordyMode;
#X obj 178 173 t b f;
#X obj 154 251 outlet;
#X obj 242 244 outlet;
#X floatatom 319 207 5 0 0 0 - - - 0;
#X msg 157 102 10;
#X msg 200 100 11;
#X msg 246 101 10;
#X obj 169 54 select 0 1 2 3;
#X msg 307 98 10;
#X connect 0 0 8 0;
#X connect 1 0 2 0;
#X connect 1 1 3 0;
#X connect 1 1 4 0;
#X connect 5 0 1 0;
#X connect 6 0 1 0;
#X connect 7 0 1 0;
#X connect 8 0 5 0;
#X connect 8 1 6 0;
#X connect 8 2 7 0;
#X connect 8 3 9 0;
#X connect 9 0 1 0;
#X restore 273 95 pd note4;
#X floatatom 28 -60 5 0 0 0 - - - 0;
#X msg 23 -93 0;
#X text 197 -110 0 for min7 1 for Maj7 2 for sus4 7 3 for min7b5;
#N canvas 295 295 450 300 note3 0;
#X obj 168 19 r chordyMode;
#X obj 178 173 t b f;
#X obj 154 251 outlet;
#X obj 242 244 outlet;
#X floatatom 319 207 5 0 0 0 - - - 0;
#X obj 169 54 select 0 1 2 3;
#X msg 120 115 7;
#X msg 182 114 7;
#X msg 244 113 7;
#X msg 290 114 7;
#X connect 0 0 5 0;
#X connect 1 0 2 0;
#X connect 1 1 3 0;
#X connect 1 1 4 0;
#X connect 5 0 6 0;
#X connect 5 1 7 0;
#X connect 5 2 8 0;
#X connect 5 3 9 0;
#X connect 6 0 1 0;
#X connect 7 0 1 0;
#X connect 8 0 1 0;
#X connect 9 0 1 0;
#X restore 107 98 pd note3;
#X obj 108 172 + 7;
#X obj 273 162 + 10;
#X obj 524 452 vline~;
#X obj 759 398 r metro;
#X obj 831 393 r trigChordy;
#X obj 368 517 sig~;
#X floatatom 362 477 5 0 0 0 - - - 0;
#X floatatom 554 649 5 0 0 0 - - - 0;
#X msg 661 628 8;
#X obj 774 600 loadbang;
#X obj 127 565 vcf~ 1, f 10;
#X msg 274 423 2;
#X obj 374 585 *~ 240, f 8;
#X obj 401 424 inlet;
#X obj -402 278 s trigChordy;
#X obj 455 58 loadbang;
#X msg 853 311 1 1 \, 0.5 0 400 \, 0 0 780;
#X obj 421 545 *~;
#X msg 760 432 1 100 \, 0.5 0 20 \, 0 0 580;
#X obj 149 672 outlet~;
#X floatatom -382 227 5 0 0 0 - - - 0;
#X obj 1138 405 tgl 15 0 empty empty empty 17 7 0 10 #fcfcfc #000000
#000000 0 1;
#X obj 1138 443 sel 1;
#X obj 1138 497 bng 15 250 50 0 empty empty empty 17 7 0 10 #fcfcfc
#000000 #000000;
#X obj 1169 496 bng 15 250 50 0 empty empty empty 17 7 0 10 #fcfcfc
#000000 #000000;
#X obj 1080 593 line;
#X msg 1187 544 0 300;
#X msg 1107 538 1 1;
#X obj 1068 631 s chordyEnv;
#X floatatom 1054 456 5 0 0 0 - - - 0;
#X obj 306 363 r chordyEnv;
#X obj 127 466 *~ 0.28;
#X connect 1 0 2 0;
#X connect 2 0 22 0;
#X connect 3 0 6 0;
#X connect 3 0 38 0;
#X connect 3 0 44 0;
#X connect 3 0 45 0;
#X connect 4 0 3 0;
#X connect 5 0 4 0;
#X connect 5 0 41 0;
#X connect 6 0 1 0;
#X connect 7 0 54 0;
#X connect 9 0 13 0;
#X connect 10 0 21 0;
#X connect 10 0 19 0;
#X connect 12 0 60 0;
#X connect 13 0 10 0;
#X connect 13 0 11 0;
#X connect 14 0 3 0;
#X connect 15 0 16 0;
#X connect 15 0 58 0;
#X connect 15 0 64 0;
#X connect 18 0 0 0;
#X connect 20 0 60 0;
#X connect 20 0 66 0;
#X connect 20 0 73 0;
#X connect 22 0 75 0;
#X connect 23 0 24 0;
#X connect 24 0 26 0;
#X connect 25 0 23 0;
#X connect 26 0 75 0;
#X connect 27 0 28 0;
#X connect 28 0 30 0;
#X connect 29 0 27 0;
#X connect 30 0 75 0;
#X connect 31 0 32 0;
#X connect 33 0 34 0;
#X connect 34 0 36 0;
#X connect 35 0 33 0;
#X connect 36 0 75 0;
#X connect 37 0 38 0;
#X connect 37 1 38 1;
#X connect 38 0 25 0;
#X connect 39 0 45 0;
#X connect 39 1 45 1;
#X connect 40 0 32 0;
#X connect 41 0 40 0;
#X connect 43 0 44 0;
#X connect 43 1 44 1;
#X connect 44 0 29 0;
#X connect 45 0 35 0;
#X connect 47 0 62 0;
#X connect 48 0 62 0;
#X connect 49 0 61 0;
#X connect 50 0 49 0;
#X connect 51 0 54 2;
#X connect 52 0 51 0;
#X connect 53 0 52 0;
#X connect 53 0 55 0;
#X connect 54 0 63 0;
#X connect 55 0 50 0;
#X connect 56 0 54 1;
#X connect 57 0 50 0;
#X connect 59 0 18 0;
#X connect 60 0 8 0;
#X connect 61 0 56 0;
#X connect 62 0 46 0;
#X connect 65 0 66 0;
#X connect 66 0 67 0;
#X connect 66 1 68 0;
#X connect 67 0 71 0;
#X connect 68 0 70 0;
#X connect 69 0 72 0;
#X connect 70 0 69 0;
#X connect 71 0 69 0;
#X connect 74 0 7 1;
#X connect 74 0 61 1;
#X connect 75 0 7 0;
