#N canvas 63 63 1146 754 12;
#X obj 812 621 line~;
#X obj 703 475 bng 15 250 50 0 empty empty empty 17 7 0 10 #fcfcfc
#000000 #000000;
#X obj 358 869 dac~;
#X obj 62 549 osc~ 90;
#X obj 350 757 *~;
#X obj 43 434 line~;
#X obj 189 679 clip~ -0.8 0.8;
#X obj 79 593 *~ 1;
#X obj 517 421 hsl 128 15 0.5 9 0 0 empty empty empty -2 -8 0 10 #00faff
#000000 #000000 0 1;
#X obj 839 240 vsl 15 128 70 900 0 0 empty empty empty 0 -9 0 10 #faff00
#000000 #000000 0 1;
#X obj 707 503 pack 0 400;
#X msg 727 544 1 \, 0 \$2, f 33;
#X obj 132 193 hsl 128 15 100 300 0 0 empty empty empty -2 -8 0 10
#00ff04 #000000 #000000 0 1;
#X obj 477 91 hsl 128 15 80 900 0 0 empty empty empty -2 -8 0 10 #ff8300
#000000 #000000 0 1;
#X text 182 158 pitchAmount;
#X obj 343 177 vsl 15 128 90 400 0 0 empty empty empty 0 -9 0 10 #faff00
#000000 #000000 0 1;
#X text 328 139 pitchDecay;
#X msg 50 361 \$2 \, 40 \$3;
#X obj 471 352 mtof;
#X obj 49 493 +~;
#X obj 53 329 pack 0 100 300;
#X floatatom 529 254 5 0 0 0 - - - 0;
#X obj 529 294 - 48;
#X obj 471 147 / 2;
#X text 511 60 decay Pitch + env;
#X msg 163 108 200;
#X obj 161 -18 loadbang;
#X msg 526 376 4.2;
#X obj 523 340 loadbang;
#X msg 579 255 60;
#X obj 580 213 loadbang;
#X obj 706 243 inlet;
#X obj 533 174 inlet;
#X obj 411 61 inlet;
#X msg 143 524 0.5;
#X obj 76 87 inlet;
#X obj 734 315 s kickMfTrig;
#X obj 31 255 r kickMfTrig;
#X obj 446 680 *~ 0.25;
#X msg 478 32 252;
#X connect 0 0 38 0;
#X connect 1 0 10 0;
#X connect 1 0 34 0;
#X connect 3 0 7 0;
#X connect 4 0 2 0;
#X connect 4 0 2 1;
#X connect 5 0 19 0;
#X connect 6 0 4 0;
#X connect 7 0 6 0;
#X connect 8 0 7 1;
#X connect 9 0 10 1;
#X connect 10 0 11 0;
#X connect 11 0 0 0;
#X connect 12 0 20 1;
#X connect 13 0 23 0;
#X connect 13 0 9 0;
#X connect 15 0 20 2;
#X connect 17 0 5 0;
#X connect 18 0 19 1;
#X connect 19 0 3 0;
#X connect 20 0 17 0;
#X connect 21 0 22 0;
#X connect 22 0 18 0;
#X connect 23 0 15 0;
#X connect 25 0 12 0;
#X connect 26 0 25 0;
#X connect 26 0 39 0;
#X connect 27 0 8 0;
#X connect 28 0 27 0;
#X connect 29 0 22 0;
#X connect 30 0 29 0;
#X connect 31 0 1 0;
#X connect 31 0 36 0;
#X connect 32 0 21 0;
#X connect 33 0 13 0;
#X connect 34 0 3 1;
#X connect 35 0 12 0;
#X connect 37 0 20 0;
#X connect 38 0 4 1;
#X connect 39 0 13 0;
