#N canvas 111 -1016 1165 728 12;
#X obj 274 463 osc~;
#X floatatom 277 108 5 0 0 0 - - - 0;
#X msg 278 52 60;
#X obj 278 13 loadbang;
#X obj 520 219 osc~, f 14;
#X obj 277 146 mtof, f 9;
#X obj 520 180 * 2;
#X obj 518 120 t b f;
#X obj 354 600 *~;
#X obj 870 514 vline~;
#X obj 869 336 r trigFm2Op;
#X obj 114 136 inlet;
#X obj 114 175 s trigFm2Op;
#X obj 190 102 inlet;
#X obj 521 24 inlet;
#X obj 770 171 inlet;
#X obj 44 209 bng 15 250 50 0 empty empty empty 17 7 0 10 #fcfcfc #000000
#000000;
#X obj 359 646 outlet~;
#X obj 277 387 +~;
#X floatatom 615 80 5 0 0 0 - - - 0;
#X floatatom 819 272 5 0 0 0 - - - 0;
#X obj 444 324 *~ 0;
#X obj 372 359 *~ 50;
#X text 526 3 modulator ratio;
#X text 759 144 modulator index;
#X msg 872 433 0 2 \, 1 2 \, 0 200 200;
#X obj 287 493 *~ 0.2;
#X obj 539 360 tgl 15 0 empty empty empty 17 7 0 10 #fcfcfc #000000
#000000 0 1;
#X obj 539 398 sel 1;
#X obj 539 452 bng 15 250 50 0 empty empty empty 17 7 0 10 #fcfcfc
#000000 #000000;
#X obj 570 451 bng 15 250 50 0 empty empty empty 17 7 0 10 #fcfcfc
#000000 #000000;
#X obj 481 548 line;
#X msg 588 499 0 300;
#X msg 508 493 1 1;
#X floatatom 779 433 5 0 0 0 - - - 0;
#X connect 0 0 26 0;
#X connect 1 0 5 0;
#X connect 2 0 1 0;
#X connect 3 0 2 0;
#X connect 4 0 21 0;
#X connect 5 0 6 0;
#X connect 5 0 18 0;
#X connect 6 0 4 0;
#X connect 7 0 6 0;
#X connect 7 1 6 1;
#X connect 8 0 17 0;
#X connect 10 0 25 0;
#X connect 10 0 28 0;
#X connect 10 0 34 0;
#X connect 11 0 12 0;
#X connect 11 0 16 0;
#X connect 13 0 1 0;
#X connect 14 0 7 0;
#X connect 14 0 19 0;
#X connect 15 0 20 0;
#X connect 15 0 21 1;
#X connect 18 0 0 0;
#X connect 19 0 7 0;
#X connect 21 0 22 0;
#X connect 22 0 18 1;
#X connect 25 0 9 0;
#X connect 26 0 8 0;
#X connect 27 0 28 0;
#X connect 28 0 29 0;
#X connect 28 1 30 0;
#X connect 29 0 33 0;
#X connect 30 0 32 0;
#X connect 31 0 8 1;
#X connect 32 0 31 0;
#X connect 33 0 31 0;
