#N canvas 142 27 1165 728 12;
#X obj 274 463 osc~;
#X floatatom 277 108 5 0 0 0 - - - 0;
#X msg 278 52 60;
#X obj 278 13 loadbang;
#X obj 553 235 osc~, f 14;
#X obj 277 146 mtof, f 9;
#X obj 553 196 * 2;
#X obj 551 136 t b f;
#X obj 354 600 *~;
#X obj 555 506 vline~;
#X obj 557 326 r trigFm2Op;
#X obj 114 136 inlet;
#X obj 114 175 s trigFm2Op;
#X obj 190 102 inlet;
#X obj 554 40 inlet;
#X obj 770 171 inlet;
#X obj 44 209 bng 15 250 50 0 empty empty empty 17 7 0 10 #fcfcfc #000000
#000000;
#X msg 557 424 0 2 \, 1 2 \, 0 200 200;
#X obj 359 646 outlet~;
#X obj 277 387 +~;
#X floatatom 680 79 5 0 0 0 - - - 0;
#X floatatom 819 272 5 0 0 0 - - - 0;
#X obj 444 324 *~ 0;
#X obj 372 359 *~ 50;
#X obj 285 492 *~ 0.25;
#X connect 0 0 24 0;
#X connect 1 0 5 0;
#X connect 2 0 1 0;
#X connect 3 0 2 0;
#X connect 4 0 22 0;
#X connect 5 0 6 0;
#X connect 5 0 19 0;
#X connect 6 0 4 0;
#X connect 7 0 6 0;
#X connect 7 1 6 1;
#X connect 8 0 18 0;
#X connect 9 0 8 1;
#X connect 10 0 17 0;
#X connect 11 0 12 0;
#X connect 11 0 16 0;
#X connect 13 0 1 0;
#X connect 14 0 7 0;
#X connect 14 0 20 0;
#X connect 15 0 21 0;
#X connect 15 0 22 1;
#X connect 17 0 9 0;
#X connect 19 0 0 0;
#X connect 20 0 7 0;
#X connect 22 0 23 0;
#X connect 23 0 19 1;
#X connect 24 0 8 0;
