#N canvas 142 27 1165 728 12;
#X obj 274 463 osc~;
#X floatatom 284 162 5 0 0 0 - - - 0;
#X msg 285 106 60;
#X obj 285 67 loadbang;
#X obj 553 235 osc~, f 14;
#X obj 284 200 mtof, f 9;
#X obj 273 401 *~;
#X obj 277 508 *~ 0.5;
#X obj 553 196 * 2;
#X obj 551 136 t b f;
#X obj 444 324 *~ 6;
#X obj 354 600 *~;
#X obj 555 506 vline~;
#X obj 557 326 r trigFm2Op;
#X obj 114 136 inlet;
#X obj 114 175 s trigFm2Op;
#X obj 190 102 inlet;
#X obj 554 40 inlet;
#X obj 770 171 inlet;
#X obj 44 209 bng 15 250 50 0 empty empty empty 17 7 0 10 #fcfcfc #000000
#000000;
#X msg 557 424 0 2 \, 1 2 \, 0 200 200;
#X obj 1020 355 inlet;
#X obj 1015 580 send fm2OpVolume;
#X obj 354 475 r fm2OpVolume;
#X obj 976 329 loadbang;
#X msg 985 392 0.35;
#X obj 294 543 *~ 0.3;
#X obj 359 646 outlet~;
#X connect 0 0 7 0;
#X connect 1 0 5 0;
#X connect 2 0 1 0;
#X connect 3 0 2 0;
#X connect 4 0 10 0;
#X connect 5 0 6 0;
#X connect 5 0 8 0;
#X connect 6 0 0 0;
#X connect 7 0 26 0;
#X connect 8 0 4 0;
#X connect 9 0 8 0;
#X connect 9 1 8 1;
#X connect 10 0 6 1;
#X connect 11 0 27 0;
#X connect 12 0 11 1;
#X connect 13 0 20 0;
#X connect 14 0 15 0;
#X connect 14 0 19 0;
#X connect 16 0 1 0;
#X connect 17 0 9 0;
#X connect 18 0 10 1;
#X connect 20 0 12 0;
#X connect 21 0 22 0;
#X connect 23 0 7 1;
#X connect 24 0 25 0;
#X connect 26 0 11 0;
