#N canvas 193 37 834 548 12;
#X obj 266 38 tgl 15 0 empty empty empty 17 7 0 10 #fcfcfc #000000
#000000 0 1;
#X obj 266 76 sel 1;
#X obj 266 130 bng 15 250 50 0 empty empty empty 17 7 0 10 #fcfcfc
#000000 #000000;
#X obj 297 129 bng 15 250 50 0 empty empty empty 17 7 0 10 #fcfcfc
#000000 #000000;
#X obj 208 226 line;
#X floatatom 264 304 5 0 0 0 - - - 0;
#X msg 547 172 0 300;
#X obj -10 296 osc~ 220;
#X obj 199 399 *~;
#X obj 198 438 *~ 0.5;
#X obj 197 487 dac~;
#X msg 235 171 1 1;
#X obj 482 404 expr;
#X obj 129 31 tgl 15 0 empty empty empty 17 7 0 10 #fcfcfc #000000
#000000 0 1;
#X floatatom 80 116 5 0 0 0 - - - 0;
#X connect 0 0 1 0;
#X connect 1 0 2 0;
#X connect 1 1 3 0;
#X connect 2 0 11 0;
#X connect 3 0 6 0;
#X connect 4 0 5 0;
#X connect 5 0 8 1;
#X connect 6 0 4 0;
#X connect 7 0 8 0;
#X connect 8 0 9 0;
#X connect 9 0 10 0;
#X connect 9 0 10 1;
#X connect 11 0 4 0;
#X connect 13 0 14 0;
