#N canvas 799 -671 743 643 12;
#X obj 88 111 loadbang;
#X obj 79 192 soundfiler;
#X floatatom 318 260 5 0 0 0 - - - 0;
#X obj 318 221 / 44.1;
#N canvas 121 121 450 300 midiNNtoRatio 0;
#X obj 189 109 mtof;
#X floatatom 188 142 5 0 0 0 - - - 0;
#X floatatom 189 54 5 0 0 0 - - - 0;
#X obj 188 169 / 440;
#X floatatom 187 197 5 0 0 0 - - - 0;
#X obj 189 81 + 9;
#X obj 191 10 inlet;
#X obj 188 242 outlet;
#X connect 0 0 1 0;
#X connect 1 0 3 0;
#X connect 2 0 5 0;
#X connect 3 0 4 0;
#X connect 4 0 7 0;
#X connect 5 0 0 0;
#X connect 6 0 2 0;
#X restore 484 219 pd midiNNtoRatio;
#X obj 481 253 t b f;
#X floatatom 479 315 5 0 0 0 - - - 0;
#X obj 31 431 line~;
#X msg 32 379 \$1 \, \$2 \$3;
#X obj 8 286 bng 15 250 50 0 empty empty empty 17 7 0 10 #fcfcfc #000000
#000000;
#X obj 108 582 outlet~;
#X obj 8 231 inlet;
#X obj 488 172 inlet;
#X obj 76 333 pack 0 1000 20000;
#X floatatom 117 272 5 0 0 0 - - - 0;
#X obj 31 496 tabread4~ clave1;
#X msg 82 150 read -resize samples/Clave_low808.aiff clave1;
#N canvas 0 22 450 278 (subpatch) 0;
#X array clave1 1923 float 2;
#X coords 0 1 1923 -1 200 140 1;
#X restore 460 -5 graph;
#X obj 41 537 *~ 0.3;
#X obj 478 284 / 0.5;
#X connect 0 0 16 0;
#X connect 1 0 3 0;
#X connect 1 0 14 0;
#X connect 2 0 19 0;
#X connect 3 0 2 0;
#X connect 4 0 5 0;
#X connect 5 0 19 0;
#X connect 5 1 19 1;
#X connect 6 0 13 2;
#X connect 7 0 15 0;
#X connect 8 0 7 0;
#X connect 9 0 13 0;
#X connect 11 0 9 0;
#X connect 12 0 4 0;
#X connect 13 0 8 0;
#X connect 14 0 13 1;
#X connect 15 0 18 0;
#X connect 16 0 1 0;
#X connect 18 0 10 0;
#X connect 19 0 6 0;
