#N canvas 0 0 1280 772 12;
#X obj 406 424 line~;
#X obj 573 342 pack 0 1000 2000;
#X floatatom 680 259 5 0 0 0 - - - 0;
#X floatatom 755 197 5 0 0 0 - - - 0;
#X obj 541 300 bng 15 250 50 0 empty empty empty 17 7 0 10 #fcfcfc
#000000 #000000;
#X obj 755 158 / 44.1;
#X msg 405 393 \$1 \, \$2 \$3;
#N canvas 121 121 450 300 midiNNtoRatio 0;
#X obj 189 109 mtof;
#X floatatom 188 142 5 0 0 0 - - - 0;
#X floatatom 189 54 5 0 0 0 - - - 0;
#X obj 188 169 / 440;
#X floatatom 187 197 5 0 0 0 - - - 0;
#X obj 189 81 + 9;
#X obj 191 10 inlet;
#X obj 188 242 outlet;
#X connect 0 0 1 0;
#X connect 1 0 3 0;
#X connect 2 0 5 0;
#X connect 3 0 4 0;
#X connect 4 0 7 0;
#X connect 5 0 0 0;
#X connect 6 0 2 0;
#X restore 921 156 pd midiNNtoRatio;
#X obj 912 242 / 1;
#X obj 918 190 t b f;
#X floatatom 919 294 5 0 0 0 - - - 0;
#X obj 415 241 r trigbang;
#N canvas 0 48 1280 719 loadSamples 0;
#X obj 27 21 inlet;
#X obj -187 213 soundfiler;
#X obj 41 213 soundfiler;
#X obj 282 213 soundfiler;
#X floatatom -182 281 5 0 0 0 - - - 0;
#X floatatom 41 276 5 0 0 0 - - - 0;
#X floatatom 281 275 5 0 0 0 - - - 0;
#X obj 532 166 soundfiler;
#X floatatom 532 228 5 0 0 0 - - - 0;
#X obj -120 381 bng 15 250 50 0 empty empty empty 17 7 0 10 #fcfcfc
#000000 #000000;
#X floatatom 151 482 5 0 0 0 - - - 0;
#X obj 468 603 outlet;
#X obj 466 374 inlet;
#X text 525 368 second inlet select sample;
#X text 83 18 first inlet: bang to load samples;
#X text 464 633 output length in samples of the selcted sample;
#X obj 558 443 loadbang;
#X msg -298 100 read -resize samples/CH_solid909.aiff hat1;
#X obj -186 437 send hat1Dur;
#X obj 474 526 array get hatDuration;
#X msg 43 103 read -resize samples/OH_std909.aiff hat2;
#X msg 767 103 read -resize samples/OH_mid808.aiff hat4;
#X obj -17 550 array set hatDuration;
#X obj -227 550 array define hatDuration;
#X msg 368 104 read -resize samples/Legowelt_Hat2Closed.wav hat3;
#X obj -4 415 pack 1 2 3 4;
#X msg -26 480 \$1 \$2 \$3 \$4;
#X msg 554 482 1;
#X obj 38 340 t b f;
#X obj 280 314 t b f;
#X obj 531 285 t b f;
#X connect 0 0 20 0;
#X connect 0 0 17 0;
#X connect 0 0 21 0;
#X connect 0 0 24 0;
#X connect 1 0 4 0;
#X connect 2 0 5 0;
#X connect 3 0 6 0;
#X connect 4 0 9 0;
#X connect 4 0 18 0;
#X connect 4 0 25 0;
#X connect 5 0 28 0;
#X connect 6 0 29 0;
#X connect 7 0 8 0;
#X connect 8 0 30 0;
#X connect 10 0 22 1;
#X connect 12 0 19 0;
#X connect 16 0 27 0;
#X connect 17 0 1 0;
#X connect 19 0 11 0;
#X connect 20 0 2 0;
#X connect 21 0 7 0;
#X connect 24 0 3 0;
#X connect 25 0 26 0;
#X connect 26 0 22 0;
#X connect 27 0 19 1;
#X connect 28 0 25 1;
#X connect 29 0 25 2;
#X connect 30 0 25 3;
#X restore 509 102 pd loadSamples;
#X obj 508 33 bng 15 250 50 0 empty empty empty 17 7 0 10 #fcfcfc #000000
#000000;
#X obj 526 507 == 0;
#X floatatom 525 542 5 0 0 0 - - - 0;
#X floatatom 618 562 5 0 0 0 - - - 0;
#X obj 618 511 == 1;
#X obj 546 647 *~;
#X floatatom 731 561 5 0 0 0 - - - 0;
#X floatatom 843 557 5 0 0 0 - - - 0;
#X obj 731 510 == 2;
#X obj 844 512 == 3;
#X obj 656 637 *~;
#X obj 848 645 *~;
#X obj 506 -4 loadbang;
#N canvas 0 22 450 278 (subpatch) 0;
#X array hat2 28240 float 2;
#X coords 0 1 28240 -1 200 140 1 0 0;
#X restore 636 -176 graph;
#N canvas 353 353 450 278 (subpatch) 0;
#X array hat3 44100 float 2;
#X coords 0 1 44100 -1 200 140 1 0 0;
#X restore 883 -172 graph;
#N canvas 0 22 450 278 (subpatch) 0;
#X array hat1 7756 float 2;
#X coords 0 1 7756 -1 200 140 1 0 0;
#X restore 417 -173 graph;
#N canvas 0 22 450 278 (subpatch) 0;
#X array hat4 16887 float 2;
#X coords 0 1 16887 -1 200 140 1 0 0;
#X restore 1119 -173 graph;
#X obj 11 187 inlet;
#X obj 103 187 inlet;
#X obj 219 187 inlet;
#X msg 287 118 0;
#X obj 533 699 tabread4~ hat2;
#X obj 4 273 s hatGate;
#X obj 100 273 s hatNote;
#X obj 219 231 s hatIndex;
#X obj 500 241 r hatGate;
#X obj 585 56 r hatIndex;
#X obj 922 106 r hatNote;
#X obj 405 457 send~ hatEnv;
#X obj 535 579 r~ hatEnv;
#X obj 654 590 r~ hatEnv;
#X obj 782 590 r~ hatEnv;
#X obj 881 60 send hatSampleLen;
#X obj 557 398 r hatIndex;
#X obj 614 827 outlet~;
#X obj 613 794 *~ 0.2;
#X floatatom 999 459 5 0 0 0 - - - 0;
#X obj 651 703 tabread4~ hat3;
#X obj 828 701 tabread4~ hat4;
#X obj 405 702 tabread4~ hat1;
#X obj 1035 376 s hatIndex;
#X floatatom 1034 318 5 0 0 0 - - - 0;
#X obj 358 563 r~ hatEnv;
#X obj 405 637 *~;
#X obj 239 654 snapshot~;
#X floatatom 244 754 19 0 0 0 - - - 0;
#X obj 157 501 metro 10;
#X obj 162 430 tgl 15 0 empty empty empty 17 7 0 10 #fcfcfc #000000
#000000 0 1;
#X obj 450 596 sig~;
#X obj 651 732 *~ 10;
#X connect 0 0 41 0;
#X connect 1 0 6 0;
#X connect 3 0 8 0;
#X connect 4 0 1 0;
#X connect 5 0 3 0;
#X connect 6 0 0 0;
#X connect 7 0 9 0;
#X connect 8 0 10 0;
#X connect 9 0 8 0;
#X connect 9 1 8 1;
#X connect 10 0 1 2;
#X connect 12 0 1 1;
#X connect 12 0 5 0;
#X connect 12 0 2 0;
#X connect 12 0 45 0;
#X connect 13 0 12 0;
#X connect 14 0 15 0;
#X connect 15 0 61 0;
#X connect 16 0 18 1;
#X connect 17 0 16 0;
#X connect 18 0 34 0;
#X connect 19 0 23 1;
#X connect 20 0 24 1;
#X connect 21 0 19 0;
#X connect 22 0 20 0;
#X connect 23 0 57 0;
#X connect 23 0 50 0;
#X connect 24 0 51 0;
#X connect 25 0 13 0;
#X connect 25 0 33 0;
#X connect 30 0 35 0;
#X connect 31 0 36 0;
#X connect 32 0 37 0;
#X connect 34 0 48 0;
#X connect 38 0 4 0;
#X connect 39 0 12 1;
#X connect 40 0 7 0;
#X connect 42 0 18 0;
#X connect 43 0 23 0;
#X connect 44 0 24 0;
#X connect 46 0 14 0;
#X connect 46 0 17 0;
#X connect 46 0 21 0;
#X connect 46 0 22 0;
#X connect 46 0 49 0;
#X connect 48 0 47 0;
#X connect 50 0 62 0;
#X connect 51 0 48 0;
#X connect 52 0 48 0;
#X connect 54 0 53 0;
#X connect 55 0 56 0;
#X connect 56 0 52 0;
#X connect 57 0 58 0;
#X connect 59 0 57 0;
#X connect 60 0 59 0;
#X connect 61 0 56 1;
#X connect 62 0 48 0;
