#N canvas 37 18 1378 788 12;
#X obj 431 453 line~;
#X obj 586 874 dac~;
#X obj 881 60 send sampleLen;
#X obj 573 342 pack 0 1000 2000;
#X floatatom 680 259 5 0 0 0 - - - 0;
#X floatatom 755 197 5 0 0 0 - - - 0;
#X obj 541 300 bng 15 250 50 0 empty empty empty 17 7 0 10 #fcfcfc
#000000 #000000;
#X obj 755 158 / 44.1;
#X msg 431 411 \$1 \, \$2 \$3;
#N canvas 121 121 450 300 midiNNtoRatio 0;
#X obj 189 109 mtof;
#X floatatom 188 142 5 0 0 0 - - - 0;
#X floatatom 189 54 5 0 0 0 - - - 0;
#X obj 188 169 / 440;
#X floatatom 187 197 5 0 0 0 - - - 0;
#X obj 189 81 + 9;
#X obj 191 10 inlet;
#X obj 188 242 outlet;
#X connect 0 0 1 0;
#X connect 1 0 3 0;
#X connect 2 0 5 0;
#X connect 3 0 4 0;
#X connect 4 0 7 0;
#X connect 5 0 0 0;
#X connect 6 0 2 0;
#X restore 921 156 pd midiNNtoRatio;
#X obj 912 242 / 1;
#X obj 918 190 t b f;
#X floatatom 919 294 5 0 0 0 - - - 0;
#X obj 415 241 r trigbang;
#N canvas 163 51 1054 633 loadSamples 0;
#X obj 27 21 inlet;
#X obj -187 213 soundfiler;
#X obj 41 213 soundfiler;
#X obj 282 213 soundfiler;
#X floatatom -182 281 5 0 0 0 - - - 0;
#X floatatom 41 276 5 0 0 0 - - - 0;
#X floatatom 281 276 5 0 0 0 - - - 0;
#X obj 532 166 soundfiler;
#X floatatom 532 228 5 0 0 0 - - - 0;
#X msg -26 480 \$1 \$2 \$3 \$4 \$5 \$6;
#X obj -120 381 bng 15 250 50 0 empty empty empty 17 7 0 10 #fcfcfc
#000000 #000000;
#X floatatom 152 480 5 0 0 0 - - - 0;
#X obj -26 435 pack 0.1 0.2 0.33 0.4 0.5 0.66;
#X obj -17 550 array set percDuration;
#X obj -227 550 array define percDuration;
#X obj 465 512 array get percDuration;
#X msg 553 442 1;
#X obj 467 563 outlet;
#X obj 465 334 inlet;
#X text 524 328 second inlet select sample;
#X text 83 18 first inlet: bang to load samples;
#X text 463 593 output length in samples of the selcted sample;
#X obj -185 437 send perc1Dur;
#X msg 719 89 read -resize samples/tomHiDisko.wav perc4;
#X msg 364 103 read -resize samples/ClapGolf.wav perc3;
#X msg 43 103 read -resize samples/Rim98.wav perc2;
#X msg -248 102 read -resize samples/ZapMinir.wav perc1;
#X obj 557 403 loadbang;
#X connect 0 0 25 0;
#X connect 0 0 24 0;
#X connect 0 0 26 0;
#X connect 0 0 23 0;
#X connect 1 0 4 0;
#X connect 2 0 5 0;
#X connect 3 0 6 0;
#X connect 4 0 10 0;
#X connect 4 0 12 0;
#X connect 4 0 22 0;
#X connect 5 0 12 1;
#X connect 6 0 12 2;
#X connect 7 0 8 0;
#X connect 8 0 12 3;
#X connect 9 0 13 0;
#X connect 11 0 13 1;
#X connect 12 0 9 0;
#X connect 15 0 17 0;
#X connect 16 0 15 1;
#X connect 18 0 15 0;
#X connect 23 0 7 0;
#X connect 24 0 3 0;
#X connect 25 0 2 0;
#X connect 26 0 1 0;
#X connect 27 0 16 0;
#X restore 509 102 pd loadSamples;
#X obj 508 33 bng 15 250 50 0 empty empty empty 17 7 0 10 #fcfcfc #000000
#000000;
#X obj 500 241 r percGate;
#X obj 922 106 r percNote;
#X obj 482 747 tabread4~ perc1;
#X obj 609 747 tabread4~ perc2;
#X obj 728 746 tabread4~ perc3;
#X obj 850 744 tabread4~ perc4;
#N canvas 1069 226 450 300 envRate 0;
#X restore 826 277 pd envRate;
#X obj 622 393 send cane;
#X obj 526 507 == 0;
#X obj 521 452 r percIndex;
#X obj 480 699 *~;
#X floatatom 527 541 5 0 0 0 - - - 0;
#X floatatom 618 562 5 0 0 0 - - - 0;
#X obj 618 511 == 1;
#X obj 590 700 *~;
#X floatatom 731 561 5 0 0 0 - - - 0;
#X floatatom 843 557 5 0 0 0 - - - 0;
#X obj 731 510 == 2;
#X obj 844 512 == 3;
#X obj 711 704 *~;
#X obj 412 526 send~ percEnv;
#X obj 434 632 r~ percEnv;
#X obj 538 634 r~ percEnv;
#X obj 643 638 r~ percEnv;
#X obj 839 697 *~;
#X obj 773 642 r~ percEnv;
#X obj 585 56 r percIndex;
#X obj 506 -4 loadbang;
#N canvas 0 22 450 278 (subpatch) 0;
#X array perc2 3842 float 2;
#X coords 0 1 3842 -1 200 140 1;
#X restore 636 -176 graph;
#N canvas 0 22 450 278 (subpatch) 0;
#X array perc3 8036 float 4;
#X coords 0 1 8035 -1 200 140 1 0 0;
#X restore 908 -173 graph;
#N canvas 0 22 450 278 (subpatch) 0;
#X array perc1 13046 float 2;
#X coords 0 1 13046 -1 200 140 1 0 0;
#X restore 417 -173 graph;
#N canvas 0 22 450 278 (subpatch) 0;
#X array perc4 23825 float 2;
#X coords 0 1 23825 -1 200 140 1;
#X restore 1119 -173 graph;
#X obj 11 187 inlet;
#X obj 108 187 inlet;
#X obj 219 175 inlet;
#X obj 323 189 inlet;
#X obj 4 273 s percGate;
#X obj 100 273 s percNote;
#X msg 287 118 0;
#X obj 225 231 s percIndex;
#X obj 605 826 *~ 0.25;
#X connect 0 0 36 0;
#X connect 3 0 8 0;
#X connect 3 0 23 0;
#X connect 5 0 10 0;
#X connect 6 0 3 0;
#X connect 7 0 5 0;
#X connect 8 0 0 0;
#X connect 9 0 11 0;
#X connect 10 0 12 0;
#X connect 11 0 10 0;
#X connect 11 1 10 1;
#X connect 12 0 3 2;
#X connect 14 0 3 1;
#X connect 14 0 7 0;
#X connect 14 0 2 0;
#X connect 14 0 4 0;
#X connect 15 0 14 0;
#X connect 16 0 6 0;
#X connect 17 0 9 0;
#X connect 18 0 56 0;
#X connect 19 0 56 0;
#X connect 20 0 56 0;
#X connect 21 0 56 0;
#X connect 24 0 27 0;
#X connect 25 0 24 0;
#X connect 25 0 29 0;
#X connect 25 0 33 0;
#X connect 25 0 34 0;
#X connect 26 0 18 0;
#X connect 27 0 26 1;
#X connect 28 0 30 1;
#X connect 29 0 28 0;
#X connect 30 0 19 0;
#X connect 31 0 35 1;
#X connect 32 0 40 1;
#X connect 33 0 31 0;
#X connect 34 0 32 0;
#X connect 35 0 20 0;
#X connect 37 0 26 0;
#X connect 38 0 30 0;
#X connect 39 0 35 0;
#X connect 40 0 21 0;
#X connect 41 0 40 0;
#X connect 42 0 14 1;
#X connect 43 0 15 0;
#X connect 43 0 54 0;
#X connect 48 0 52 0;
#X connect 49 0 53 0;
#X connect 50 0 55 0;
#X connect 54 0 55 0;
#X connect 56 0 1 0;
#X connect 56 0 1 1;
