#N canvas 0 26 1427 830 12;
#X obj 416 385 line~;
#X obj 545 311 pack 0 1000 2000;
#X floatatom 680 259 5 0 0 0 - - - 0;
#X floatatom 755 197 5 0 0 0 - - - 0;
#X obj 513 269 bng 15 250 50 0 empty empty empty 17 7 0 10 #fcfcfc
#000000 #000000;
#X obj 755 158 / 44.1;
#X msg 416 343 \$1 \, \$2 \$3;
#N canvas 121 121 450 300 midiNNtoRatio 0;
#X obj 189 109 mtof;
#X floatatom 188 142 5 0 0 0 - - - 0;
#X floatatom 189 54 5 0 0 0 - - - 0;
#X obj 188 169 / 440;
#X floatatom 187 197 5 0 0 0 - - - 0;
#X obj 189 81 + 9;
#X obj 191 10 inlet;
#X obj 188 242 outlet;
#X connect 0 0 1 0;
#X connect 1 0 3 0;
#X connect 2 0 5 0;
#X connect 3 0 4 0;
#X connect 4 0 7 0;
#X connect 5 0 0 0;
#X connect 6 0 2 0;
#X restore 921 156 pd midiNNtoRatio;
#X obj 912 242 / 1;
#X obj 918 190 t b f;
#X floatatom 891 263 5 0 0 0 - - - 0;
#X obj 415 241 r trigbang;
#N canvas 166 37 1054 633 loadSamples 0;
#X obj 27 21 inlet;
#X obj -187 213 soundfiler;
#X obj 41 213 soundfiler;
#X obj 282 213 soundfiler;
#X floatatom -182 281 5 0 0 0 - - - 0;
#X floatatom 41 276 5 0 0 0 - - - 0;
#X floatatom 281 276 5 0 0 0 - - - 0;
#X obj 532 166 soundfiler;
#X floatatom 532 228 5 0 0 0 - - - 0;
#X msg -26 480 \$1 \$2 \$3 \$4 \$5 \$6;
#X obj -120 381 bng 15 250 50 0 empty empty empty 17 7 0 10 #fcfcfc
#000000 #000000;
#X floatatom 152 480 5 0 0 0 - - - 0;
#X obj -26 435 pack 0.1 0.2 0.33 0.4 0.5 0.66;
#X msg 553 442 1;
#X obj 467 563 outlet;
#X obj 465 334 inlet;
#X text 524 328 second inlet select sample;
#X text 83 18 first inlet: bang to load samples;
#X text 463 593 output length in samples of the selcted sample;
#X obj 557 403 loadbang;
#X msg -298 100 read -resize samples/SD_splash808.aiff snare1;
#X msg 364 103 read -resize samples/SnareMeka.wav snare3;
#X obj -186 437 send snare1Dur;
#X obj 465 512 array get snareDuration;
#X msg 43 103 read -resize samples/SnarePowell.wav snare2;
#X msg 719 89 read -resize samples/Legowelt_Snare_023.wav snare4;
#X obj -17 550 array set snareDuration;
#X obj -227 550 array define snareDuration;
#X connect 0 0 24 0;
#X connect 0 0 21 0;
#X connect 0 0 20 0;
#X connect 0 0 25 0;
#X connect 1 0 4 0;
#X connect 2 0 5 0;
#X connect 3 0 6 0;
#X connect 4 0 10 0;
#X connect 4 0 12 0;
#X connect 4 0 22 0;
#X connect 5 0 12 1;
#X connect 6 0 12 2;
#X connect 7 0 8 0;
#X connect 8 0 12 3;
#X connect 9 0 26 0;
#X connect 11 0 26 1;
#X connect 12 0 9 0;
#X connect 13 0 23 1;
#X connect 15 0 23 0;
#X connect 19 0 13 0;
#X connect 20 0 1 0;
#X connect 21 0 3 0;
#X connect 23 0 14 0;
#X connect 24 0 2 0;
#X connect 25 0 7 0;
#X restore 509 102 pd loadSamples;
#X obj 508 33 bng 15 250 50 0 empty empty empty 17 7 0 10 #fcfcfc #000000
#000000;
#X obj 511 439 == 0;
#X obj 465 631 *~;
#X floatatom 512 473 5 0 0 0 - - - 0;
#X floatatom 603 494 5 0 0 0 - - - 0;
#X obj 603 443 == 1;
#X obj 575 632 *~;
#X floatatom 716 493 5 0 0 0 - - - 0;
#X floatatom 828 489 5 0 0 0 - - - 0;
#X obj 716 442 == 2;
#X obj 829 444 == 3;
#X obj 696 636 *~;
#X obj 824 629 *~;
#X obj 506 -4 loadbang;
#N canvas 0 22 450 278 (subpatch) 0;
#X array snare2 5910 float 2;
#X coords 0 1 5910 -1 200 140 1 0 0;
#X restore 636 -176 graph;
#N canvas 0 22 450 278 (subpatch) 0;
#X array snare3 10319 float 4;
#X coords 0 1 10318 -1 200 140 1 0 0;
#X restore 908 -173 graph;
#N canvas 0 22 450 278 (subpatch) 0;
#X array snare1 9044 float 2;
#X coords 0 1 9044 -1 200 140 1 0 0;
#X restore 417 -173 graph;
#N canvas 0 22 450 278 (subpatch) 0;
#X array snare4 44100 float 2;
#X coords 0 1 44100 -1 200 140 1 0 0;
#X restore 1119 -173 graph;
#X obj 11 187 inlet;
#X obj 108 187 inlet;
#X obj 219 175 inlet;
#X msg 287 118 0;
#X obj 581 724 *~ 0.25;
#X obj 467 679 tabread4~ snare1;
#X obj 594 679 tabread4~ snare2;
#X obj 713 678 tabread4~ snare3;
#X obj 835 676 tabread4~ snare4;
#X obj 4 273 s snareGate;
#X obj 100 273 s snareNote;
#X obj 225 231 s snareIndex;
#X obj 500 241 r snareGate;
#X obj 585 56 r snareIndex;
#X obj 922 106 r snareNote;
#X obj 397 458 send~ snareEnv;
#X obj 419 564 r~ snareEnv;
#X obj 523 566 r~ snareEnv;
#X obj 629 570 r~ snareEnv;
#X obj 758 574 r~ snareEnv;
#X obj 881 60 send snareSampleLen;
#X obj 506 384 r snareIndex;
#X obj 598 787 outlet~;
#X connect 0 0 46 0;
#X connect 1 0 6 0;
#X connect 3 0 8 0;
#X connect 4 0 1 0;
#X connect 5 0 3 0;
#X connect 6 0 0 0;
#X connect 7 0 9 0;
#X connect 8 0 10 0;
#X connect 9 0 8 0;
#X connect 9 1 8 1;
#X connect 10 0 1 2;
#X connect 12 0 1 1;
#X connect 12 0 5 0;
#X connect 12 0 2 0;
#X connect 12 0 51 0;
#X connect 13 0 12 0;
#X connect 14 0 16 0;
#X connect 15 0 36 0;
#X connect 16 0 15 1;
#X connect 17 0 19 1;
#X connect 18 0 17 0;
#X connect 19 0 37 0;
#X connect 20 0 24 1;
#X connect 21 0 25 1;
#X connect 22 0 20 0;
#X connect 23 0 21 0;
#X connect 24 0 38 0;
#X connect 25 0 39 0;
#X connect 26 0 13 0;
#X connect 26 0 34 0;
#X connect 31 0 40 0;
#X connect 32 0 41 0;
#X connect 33 0 42 0;
#X connect 34 0 42 0;
#X connect 35 0 53 0;
#X connect 36 0 35 0;
#X connect 37 0 35 0;
#X connect 38 0 35 0;
#X connect 39 0 35 0;
#X connect 43 0 4 0;
#X connect 44 0 12 1;
#X connect 45 0 7 0;
#X connect 47 0 15 0;
#X connect 48 0 19 0;
#X connect 49 0 24 0;
#X connect 50 0 25 0;
#X connect 52 0 14 0;
#X connect 52 0 18 0;
#X connect 52 0 22 0;
#X connect 52 0 23 0;
