#N canvas 64 121 1440 763 12;
#X obj 728 17 netreceive -u -b 57120;
#X obj 26 480 bng 15 250 50 0 empty empty empty 17 7 0 10 #fcfcfc #000000
#000000;
#X obj 26 448 sel 1;
#X floatatom 112 417 5 0 0 0 - - - 0;
#X floatatom 216 484 5 0 0 0 - - - 0;
#X obj 737 108 unpackOSC;
#X obj 22 369 routeOSC /percGate /percNote /percIndex;
#X obj 236 201 bng 15 250 50 0 empty empty empty 17 7 0 10 #fcfcfc
#000000 #000000;
#X obj 258 152 sel 1;
#X floatatom 140 109 5 0 0 0 - - - 0;
#X obj 942 468 bng 15 250 50 0 empty empty empty 17 7 0 10 #fcfcfc
#000000 #000000;
#X obj 942 435 sel 1;
#X floatatom 1058 424 5 0 0 0 - - - 0;
#X floatatom 1129 424 5 0 0 0 - - - 0;
#X obj 988 491 mf-fm2Op;
#X floatatom 1172 424 5 0 0 0 - - - 0;
#X obj 126 260 kickMf;
#X obj 69 19 routeOSC /kickPitchEnv /kickDecay /kickNote /kickGate
;
#X floatatom 58 113 5 0 0 0 - - - 0;
#X obj 939 238 bng 15 250 50 0 empty empty empty 17 7 0 10 #fcfcfc
#000000 #000000;
#X obj 939 209 sel 1;
#X floatatom 1020 210 5 0 0 0 - - - 0;
#X floatatom 1106 210 5 0 0 0 - - - 0;
#X floatatom 1187 210 5 0 0 0 - - - 0;
#X obj 939 166 routeOSC /psgPlusGate /psgPlusNote /psgPlusIndex /psgPlusLevel
;
#X obj 939 263 psgPlusPD;
#X obj 32 570 mfPercMultiSampler;
#X floatatom 644 405 5 0 0 0 - - - 0;
#X floatatom 744 404 5 0 0 0 - - - 0;
#X obj 535 467 bng 15 250 50 0 empty empty empty 17 7 0 10 #fcfcfc
#000000 #000000;
#X obj 536 439 sel 1;
#X obj 597 517 chordyPD;
#X obj 545 371 routeOSC /chordyGate /chordyNote /chordyMode /chordyCutoff
;
#X floatatom 840 462 5 0 0 0 - - - 0;
#X obj 1036 56 parseEvaluatedCommands;
#X obj 602 50 s oscFromPharo;
#X obj 1036 13 r oscFromPharo;
#X obj 1036 106 print;
#X obj 106 727 bng 15 250 50 0 empty empty empty 17 7 0 10 #fcfcfc
#000000 #000000;
#X obj 103 692 sel 1;
#X floatatom 179 695 5 0 0 0 - - - 0;
#X floatatom 246 695 5 0 0 0 - - - 0;
#X obj 100 750 mfHatsMultiSampler;
#X obj 388 674 bng 15 250 50 0 empty empty empty 17 7 0 10 #fcfcfc
#000000 #000000;
#X obj 388 642 sel 1;
#X floatatom 472 644 5 0 0 0 - - - 0;
#X floatatom 553 642 5 0 0 0 - - - 0;
#X obj 388 610 routeOSC /snareGate /snareNote /snareIndex;
#X obj 388 696 mfSnaresMultiSampler;
#X obj 694 1096 hip~ 20;
#X obj 943 728 r oscFromPharo;
#X obj 941 812 routeOSC /masterCutoff;
#X floatatom 941 840 5 0 0 0 - - - 0;
#X obj 1160 770 unpackOSC;
#X obj 1340 1092 line~;
#X obj 1340 1064 pack f 1000;
#X text 1390 1114 signal input (variable delay time in ms);
#X msg 1384 1028 1000;
#X obj 1340 1149 delread4~ stupdelay;
#X obj 1337 1234 dac~;
#X obj 1340 924 vsl 15 128 20 400 0 0 empty empty Delay\\\ time 0 -9
0 10 #fcfcfc #000000 #000000 0 1;
#X obj 1171 1222 *~;
#X obj 1091 1120 hsl 128 15 0 0.99 0 0 empty empty DELAY\\\ FEEDBACK
-2 -8 0 10 #fcfcfc #000000 #000000 0 1;
#X floatatom 1224 1081 5 0 0 0 - - - 0;
#X msg 1243 925 238;
#X obj 1243 897 loadbang;
#X obj 1557 1008 hsl 128 15 0.005 0.5 1 0 empty empty DelayLevel -2
-8 0 10 #fcfcfc #000000 #000000 0 1;
#X obj 1342 812 routeOSC /masterDelayTime;
#X obj 1085 1028 routeOSC /masterDelayFeedback;
#X obj 100 649 routeOSC /hatGate /hatNote /hatIndex;
#X obj 1325 182 bng 15 250 50 0 empty empty empty 17 7 0 10 #fcfcfc
#000000 #000000;
#X obj 1325 158 sel 1;
#X floatatom 1415 158 5 0 0 0 - - - 0;
#X obj 1325 202 mfRide;
#X obj 1325 226 s~ mfRide;
#X obj 540 841 r~ mfRide;
#X obj 1712 111 bng 15 250 50 0 empty empty empty 17 7 0 10 #fcfcfc
#000000 #000000;
#X obj 1711 84 sel 1;
#X floatatom 1801 85 5 0 0 0 - - - 0;
#X obj 1710 177 s~ mfClave;
#X obj 1714 54 routeOSC /claveGate /claveNote;
#X obj 1712 135 mfClave;
#X obj 617 842 r~ mfClave;
#X msg 1647 951 0;
#X obj 1647 923 loadbang;
#X obj 987 383 routeOSC /fm2OpGate /fm2OpNote /fm2OpRatio /fm2OpIndex
/fm2OpLevel;
#X obj 660 1258 dac~;
#X obj 1554 1032 s delaySendAmount;
#X obj 820 1250 *~;
#X obj 838 1168 r delaySendAmount;
#X obj 1557 897 routeOSC /masterDelaySend;
#X obj 1149 1260 delwrite~ stupdelay 2000;
#X obj 1340 1177 *~ 0.36;
#X obj 1326 131 routeOSC /rideGate /rideNote /crashGate /crashNote
;
#X obj 1504 182 bng 15 250 50 0 empty empty empty 17 7 0 10 #fcfcfc
#000000 #000000;
#X obj 1504 158 sel 1;
#X floatatom 1594 158 5 0 0 0 - - - 0;
#X obj 1504 202 mfCrash;
#X obj 1504 226 s~ mfCrash;
#X obj 710 844 r~ mfCrash;
#X obj 56 1076 r~ mfKick;
#X obj 40 299 s~ mfKick;
#X obj 33 619 s~ mfPerc;
#X obj 59 1018 r~ mfPerc;
#X obj 100 795 s~ mfHats;
#X obj 71 967 r~ mfHats;
#X obj 389 732 s~ mfSnare;
#X obj 138 930 r~ mfSnare;
#X obj 598 558 s~ mfChordy;
#X obj 225 889 r~ mfChordy;
#X obj 939 292 s~ mfPsgPlus;
#X obj 320 861 r~ mfPsgPlus;
#X obj 425 856 r~ mfFm2Op;
#X obj 988 531 s~ mfFm2Op;
#X obj 1087 1066 min 0.97;
#X connect 0 0 35 0;
#X connect 0 0 5 0;
#X connect 1 0 26 0;
#X connect 2 0 1 0;
#X connect 3 0 26 1;
#X connect 4 0 26 2;
#X connect 5 0 24 0;
#X connect 5 0 32 0;
#X connect 5 0 47 0;
#X connect 5 0 17 0;
#X connect 5 0 6 0;
#X connect 5 0 69 0;
#X connect 5 0 80 0;
#X connect 5 0 85 0;
#X connect 5 0 93 0;
#X connect 6 0 2 0;
#X connect 6 1 3 0;
#X connect 6 2 4 0;
#X connect 7 0 16 3;
#X connect 8 0 7 0;
#X connect 9 0 16 1;
#X connect 11 0 10 0;
#X connect 12 0 14 1;
#X connect 13 0 14 2;
#X connect 14 0 113 0;
#X connect 15 0 14 3;
#X connect 16 0 101 0;
#X connect 17 0 18 0;
#X connect 17 1 9 0;
#X connect 17 2 16 2;
#X connect 17 3 8 0;
#X connect 18 0 16 0;
#X connect 19 0 25 0;
#X connect 20 0 19 0;
#X connect 21 0 25 1;
#X connect 22 0 25 2;
#X connect 24 0 20 0;
#X connect 24 1 21 0;
#X connect 24 2 22 0;
#X connect 24 3 23 0;
#X connect 25 0 110 0;
#X connect 26 0 102 0;
#X connect 27 0 31 1;
#X connect 28 0 31 2;
#X connect 30 0 29 0;
#X connect 31 0 108 0;
#X connect 32 0 30 0;
#X connect 32 0 31 0;
#X connect 32 1 27 0;
#X connect 32 2 28 0;
#X connect 32 3 33 0;
#X connect 33 0 31 3;
#X connect 34 0 37 0;
#X connect 36 0 34 0;
#X connect 38 0 42 0;
#X connect 39 0 38 0;
#X connect 40 0 42 1;
#X connect 41 0 42 2;
#X connect 42 0 104 0;
#X connect 43 0 48 0;
#X connect 44 0 43 0;
#X connect 45 0 48 1;
#X connect 46 0 48 2;
#X connect 47 0 44 0;
#X connect 47 1 45 0;
#X connect 47 2 46 0;
#X connect 48 0 106 0;
#X connect 49 0 86 0;
#X connect 49 0 86 1;
#X connect 49 0 88 0;
#X connect 50 0 53 0;
#X connect 51 0 52 0;
#X connect 52 0 49 1;
#X connect 53 0 51 0;
#X connect 53 0 67 0;
#X connect 53 0 68 0;
#X connect 53 0 90 0;
#X connect 54 0 58 0;
#X connect 55 0 54 0;
#X connect 57 0 55 0;
#X connect 58 0 61 0;
#X connect 58 0 92 0;
#X connect 60 0 55 0;
#X connect 60 0 63 0;
#X connect 61 0 91 0;
#X connect 62 0 61 1;
#X connect 64 0 60 0;
#X connect 65 0 64 0;
#X connect 66 0 87 0;
#X connect 67 0 60 0;
#X connect 68 0 114 0;
#X connect 69 0 39 0;
#X connect 69 1 40 0;
#X connect 69 2 41 0;
#X connect 70 0 73 0;
#X connect 71 0 70 0;
#X connect 72 0 73 1;
#X connect 73 0 74 0;
#X connect 75 0 49 0;
#X connect 76 0 81 0;
#X connect 77 0 76 0;
#X connect 78 0 81 1;
#X connect 80 0 77 0;
#X connect 80 1 78 0;
#X connect 81 0 79 0;
#X connect 82 0 49 0;
#X connect 83 0 66 0;
#X connect 84 0 83 0;
#X connect 85 0 11 0;
#X connect 85 0 14 0;
#X connect 85 1 12 0;
#X connect 85 2 13 0;
#X connect 85 3 15 0;
#X connect 88 0 91 0;
#X connect 89 0 88 1;
#X connect 90 0 66 0;
#X connect 92 0 59 0;
#X connect 92 0 59 1;
#X connect 93 0 71 0;
#X connect 93 1 72 0;
#X connect 93 2 95 0;
#X connect 93 3 96 0;
#X connect 94 0 97 0;
#X connect 95 0 94 0;
#X connect 96 0 97 1;
#X connect 97 0 98 0;
#X connect 99 0 49 0;
#X connect 100 0 49 0;
#X connect 103 0 49 0;
#X connect 105 0 49 0;
#X connect 107 0 49 0;
#X connect 109 0 49 0;
#X connect 111 0 49 0;
#X connect 112 0 49 0;
#X connect 114 0 62 0;
