#N canvas -98 -1020 1461 992 12;
#X obj 728 17 netreceive -u -b 57120;
#X obj 51 514 bng 15 250 50 0 empty empty empty 17 7 0 10 #fcfcfc #000000
#000000;
#X obj 51 482 sel 1;
#X floatatom 137 451 5 0 0 0 - - - 0;
#X floatatom 216 484 5 0 0 0 - - - 0;
#X obj 709 172 unpackOSC;
#X obj 47 403 routeOSC /percGate /percNote /percIndex;
#X obj 281 252 bng 15 250 50 0 empty empty empty 17 7 0 10 #fcfcfc
#000000 #000000;
#X obj 281 220 sel 1;
#X floatatom 163 177 5 0 0 0 - - - 0;
#X obj 984 540 bng 15 250 50 0 empty empty empty 17 7 0 10 #fcfcfc
#000000 #000000;
#X obj 984 508 sel 1;
#X floatatom 1057 446 5 0 0 0 - - - 0;
#X floatatom 1128 446 5 0 0 0 - - - 0;
#X obj 983 595 mf-fm2Op;
#X floatatom 1210 461 5 0 0 0 - - - 0;
#X obj 184 337 kickMf;
#X obj 72 40 routeOSC /kickPitchEnv /kickDecay /kickNote /kickGate
;
#X floatatom 81 181 5 0 0 0 - - - 0;
#X obj 984 393 routeOSC /fm2OpGate /fm2OpNote /fm2OpRate /fm2OIndex
/fm2OpLevel;
#X obj 825 232 bng 15 250 50 0 empty empty empty 17 7 0 10 #fcfcfc
#000000 #000000;
#X obj 825 200 sel 1;
#X floatatom 915 201 5 0 0 0 - - - 0;
#X floatatom 991 200 5 0 0 0 - - - 0;
#X floatatom 1084 219 5 0 0 0 - - - 0;
#X obj 825 153 routeOSC /psgPlusGate /psgPlusNote /psgPlusIndex /psgPlusLevel
;
#X obj 825 287 psgPlusPD;
#X obj 57 604 mfPercMultiSampler;
#X floatatom 650 487 5 0 0 0 - - - 0;
#X floatatom 750 486 5 0 0 0 - - - 0;
#X obj 569 536 bng 15 250 50 0 empty empty empty 17 7 0 10 #fcfcfc
#000000 #000000;
#X obj 560 489 sel 1;
#X obj 603 599 chordyPD;
#X obj 551 453 routeOSC /chordyGate /chordyNote /chordyMode /chordyCutoff
;
#X floatatom 846 544 5 0 0 0 - - - 0;
#X obj 1036 56 parseEvaluatedCommands;
#X obj 607 93 s oscFromPharo;
#X obj 1036 13 r oscFromPharo;
#X obj 1036 106 print;
#X obj 149 768 bng 15 250 50 0 empty empty empty 17 7 0 10 #fcfcfc
#000000 #000000;
#X obj 149 736 sel 1;
#X floatatom 235 705 5 0 0 0 - - - 0;
#X floatatom 314 738 5 0 0 0 - - - 0;
#X obj 155 858 mfHatsMultiSampler;
#X obj 151 658 routeOSC /hatGate /hatNote /hatIndex;
#X obj 425 765 bng 15 250 50 0 empty empty empty 17 7 0 10 #fcfcfc
#000000 #000000;
#X obj 425 733 sel 1;
#X floatatom 511 702 5 0 0 0 - - - 0;
#X floatatom 590 735 5 0 0 0 - - - 0;
#X obj 427 655 routeOSC /snareGate /snareNote /snareIndex;
#X obj 431 855 mfSnaresMultiSampler;
#X connect 0 0 36 0;
#X connect 0 0 5 0;
#X connect 1 0 27 0;
#X connect 2 0 1 0;
#X connect 3 0 27 1;
#X connect 4 0 27 2;
#X connect 5 0 25 0;
#X connect 5 0 19 0;
#X connect 5 0 33 0;
#X connect 5 0 17 0;
#X connect 5 0 6 0;
#X connect 5 0 44 0;
#X connect 5 0 49 0;
#X connect 6 0 2 0;
#X connect 6 1 3 0;
#X connect 6 2 4 0;
#X connect 7 0 16 3;
#X connect 8 0 7 0;
#X connect 9 0 16 1;
#X connect 10 0 14 0;
#X connect 11 0 10 0;
#X connect 12 0 14 1;
#X connect 13 0 14 2;
#X connect 15 0 14 3;
#X connect 17 0 18 0;
#X connect 17 1 9 0;
#X connect 17 2 16 2;
#X connect 17 3 8 0;
#X connect 18 0 16 0;
#X connect 19 0 11 0;
#X connect 19 1 12 0;
#X connect 19 2 13 0;
#X connect 19 3 15 0;
#X connect 20 0 26 0;
#X connect 21 0 20 0;
#X connect 22 0 26 1;
#X connect 23 0 26 2;
#X connect 25 0 21 0;
#X connect 25 1 22 0;
#X connect 25 2 23 0;
#X connect 25 3 24 0;
#X connect 28 0 32 1;
#X connect 29 0 32 2;
#X connect 30 0 32 0;
#X connect 31 0 30 0;
#X connect 33 0 31 0;
#X connect 33 1 28 0;
#X connect 33 2 29 0;
#X connect 33 3 34 0;
#X connect 34 0 32 3;
#X connect 35 0 38 0;
#X connect 37 0 35 0;
#X connect 39 0 43 0;
#X connect 40 0 39 0;
#X connect 41 0 43 1;
#X connect 42 0 43 2;
#X connect 44 0 40 0;
#X connect 44 1 41 0;
#X connect 44 2 42 0;
#X connect 45 0 50 0;
#X connect 46 0 45 0;
#X connect 47 0 50 1;
#X connect 48 0 50 2;
#X connect 49 0 46 0;
#X connect 49 1 47 0;
#X connect 49 2 48 0;
