#N canvas 422 -915 913 651 12;
#X obj 188 102 unpackOSC;
#X obj 192 174 routeOSC /evaluatedCommand;
#X obj 414 172 routeOSC /keyPressed;
#X obj 187 30 inlet;
#X obj 191 274 outlet;
#X connect 0 0 1 0;
#X connect 0 0 2 0;
#X connect 1 0 4 0;
#X connect 2 0 4 0;
#X connect 3 0 0 0;
