#N canvas 122 172 1249 634 12;
#X obj 395 278 soundfiler;
#X msg 401 138 read -resize waves/j8sqr.wav wavetable;
#N canvas 0 22 450 278 (subpatch) 0;
#X array wavetable 4096 float 2;
#X coords 0 1 4096 -1 200 140 1;
#X restore 913 104 graph;
#X obj 139 325 tabread4~ wavetable;
#X obj 139 257 phasor~ 440;
#X obj 139 291 *~ 4096;
#X floatatom 139 190 5 0 0 0 - - - 0;
#X msg 139 111 60;
#X obj 184 -53 loadbang;
#X obj 139 223 mtof;
#X msg 460 156 read -resize waves/j8saw.wav wavetable;
#X msg 460 190 read -resize waves/j8tri.wav wavetable;
#X obj 401 36 hradio 15 1 0 4 empty empty empty 0 -8 0 10 #fcfcfc #000000
#000000 0;
#X floatatom 220 44 5 0 0 0 - - - 0;
#X obj 401 104 select 0 1 2 3;
#X msg 479 251 read -resize waves/noise.wav wavetable;
#X obj 147 430 *~;
#X obj 519 336 vline~;
#X msg 546 309 1 1 \, 0.5 0 200 \, 0 0 180;
#X obj 402 396 noise~;
#X obj 444 547 dac~;
#X obj 447 469 *~;
#X obj 549 72 send psgSelection;
#X obj 534 382 r psgSelection;
#X obj 535 425 == 3;
#X floatatom 522 458 6 0 0 0 - - - 0;
#X obj 240 422 r psgSelection;
#X floatatom 240 502 6 0 0 0 - - - 0;
#X obj 140 542 *~ 0;
#X obj 444 509 *~ 0;
#X obj 241 465 != 3;
#X obj 190 113 inlet;
#X obj 10 117 inlet;
#X obj 11 231 s trigPsgPlus;
#X obj 618 270 r trigPsgPlus;
#X obj 402 0 inlet;
#X msg 325 -16 0;
#X obj 44 193 bng 15 250 50 0 empty empty empty 17 7 0 10 #fcfcfc #000000
#000000;
#X obj 137 583 outlet~;
#X obj 147 396 *~ 0.2;
#X obj 729 352 vline~;
#X obj 828 286 r trigPsgPlus;
#X obj 402 428 *~ 0.08;
#X msg 755 326 1 1 \, 0.5 0 100 \, 0 0 140;
#X connect 1 0 0 0;
#X connect 3 0 39 0;
#X connect 4 0 5 0;
#X connect 5 0 3 0;
#X connect 6 0 9 0;
#X connect 7 0 6 0;
#X connect 8 0 7 0;
#X connect 8 0 36 0;
#X connect 9 0 4 0;
#X connect 10 0 0 0;
#X connect 11 0 0 0;
#X connect 12 0 14 0;
#X connect 12 0 22 0;
#X connect 14 0 1 0;
#X connect 14 1 10 0;
#X connect 14 2 11 0;
#X connect 14 3 15 0;
#X connect 15 0 0 0;
#X connect 16 0 28 0;
#X connect 17 0 16 1;
#X connect 18 0 17 0;
#X connect 19 0 42 0;
#X connect 21 0 29 0;
#X connect 23 0 24 0;
#X connect 24 0 25 0;
#X connect 25 0 29 1;
#X connect 26 0 30 0;
#X connect 27 0 28 1;
#X connect 28 0 38 0;
#X connect 29 0 20 0;
#X connect 29 0 20 1;
#X connect 30 0 27 0;
#X connect 31 0 6 0;
#X connect 32 0 33 0;
#X connect 32 0 37 0;
#X connect 34 0 18 0;
#X connect 35 0 12 0;
#X connect 36 0 13 0;
#X connect 36 0 12 0;
#X connect 39 0 16 0;
#X connect 40 0 21 1;
#X connect 41 0 43 0;
#X connect 42 0 21 0;
#X connect 43 0 40 0;
