#N canvas 386 37 685 408 12;
#X obj 138 101 select 1 2 3 4 5 6;
#X obj 113 12 hsl 128 15 0 6 0 0 empty empty empty -2 -8 0 10 #00faff
#000000 #000000 0 1;
#X obj 126 167 bng 15 250 50 0 empty empty empty 17 7 0 10 #fcfcfc
#000000 #000000;
#X obj 152 167 bng 15 250 50 0 empty empty empty 17 7 0 10 #fcfcfc
#000000 #000000;
#X obj 177 167 bng 15 250 50 0 empty empty empty 17 7 0 10 #fcfcfc
#000000 #000000;
#X obj 204 167 bng 15 250 50 0 empty empty empty 17 7 0 10 #fcfcfc
#000000 #000000;
#X obj 234 167 bng 15 250 50 0 empty empty empty 17 7 0 10 #fcfcfc
#000000 #000000;
#X obj 267 167 bng 15 250 50 0 empty empty empty 17 7 0 10 #fcfcfc
#000000 #000000;
#X floatatom 22 80 5 0 0 0 - - - 0;
#X obj 22 42 int;
#X msg 120 296 my name is \$1;
#X msg 164 218 gatto;
#X msg 220 218 merlo;
#X msg 276 217 come;
#X obj 120 349 print;
#X msg 41 216 symbol cane;
#X connect 0 0 2 0;
#X connect 0 1 3 0;
#X connect 0 2 4 0;
#X connect 0 3 5 0;
#X connect 0 4 6 0;
#X connect 0 5 7 0;
#X connect 1 0 9 0;
#X connect 2 0 15 0;
#X connect 3 0 11 0;
#X connect 4 0 12 0;
#X connect 5 0 13 0;
#X connect 8 0 0 0;
#X connect 9 0 8 0;
#X connect 10 0 14 0;
#X connect 11 0 10 0;
#X connect 12 0 10 0;
#X connect 13 0 10 0;
#X connect 15 0 10 0;
